<?xml version="1.0" standalone="no"?><!DOCTYPE svg PUBLIC "-//W3C//DTD SVG 1.1//EN" "http://www.w3.org/Graphics/SVG/1.1/DTD/svg11.dtd"><svg t="1742178503577" class="icon" viewBox="0 0 1194 1024" version="1.1" xmlns="http://www.w3.org/2000/svg" p-id="11744" width="233.203125" height="200" xmlns:xlink="http://www.w3.org/1999/xlink"><path d="M648.533333 184.32h-58.026666c-225.28 0-409.6 184.32-409.6 409.6v331.093333c0 37.546667 30.72 64.853333 64.853333 64.853334h747.52c37.546667 0 64.853333-30.72 64.853333-64.853334v-331.093333c3.413333-225.28-180.906667-409.6-409.6-409.6m0 102.4c170.666667 0 310.613333 139.946667 310.613334 310.613333v296.96H279.893333v-296.96c0-170.666667 139.946667-310.613333 310.613334-310.613333H648.533333" fill="#222222" p-id="11745"></path><path d="M621.226667 0C542.72 0 477.866667 64.853333 477.866667 143.36s64.853333 143.36 143.36 143.36 143.36-64.853333 143.36-143.36S699.733333 0 621.226667 0m0 98.986667c23.893333 0 44.373333 20.48 44.373333 44.373333 0 23.893333-20.48 44.373333-44.373333 44.373333-23.893333 0-44.373333-20.48-44.373334-44.373333 0-23.893333 20.48-44.373333 44.373334-44.373333M815.786667 447.146667H426.666667c-37.546667 0-64.853333 30.72-64.853334 64.853333v163.84c0 37.546667 30.72 64.853333 64.853334 64.853333h389.12c37.546667 0 64.853333-30.72 64.853333-64.853333V512c0-34.133333-30.72-64.853333-64.853333-64.853333z m-34.133334 197.973333h-320.853333V546.133333h320.853333v98.986667z" fill="#222222" p-id="11746"></path><path d="M1089.3312 735.982933V548.2496C1089.3312 520.942933 1113.224533 497.0496 1140.5312 497.0496s51.2 23.893333 51.2 51.2V735.982933c0 27.306667-23.893333 51.2-51.2 51.2-27.306667-3.413333-51.2-23.893333-51.2-51.2" fill="#222222" p-id="11747"></path><path d="M47.786667 733.866667v-184.32c0-27.306667 23.893333-51.2 51.2-51.2s51.2 23.893333 51.2 51.2v184.32c0 27.306667-23.893333 51.2-51.2 51.2s-51.2-23.893333-51.2-51.2" fill="#222222" p-id="11748"></path></svg>